<svg width="184" height="13" viewBox="0 0 184 13" fill="none" xmlns="http://www.w3.org/2000/svg">
<path d="M5.78409 3.27273H6.84091V9.05114C6.84091 9.64773 6.70028 10.1804 6.41903 10.6491C6.14063 11.1151 5.74716 11.483 5.23864 11.7528C4.73011 12.0199 4.13352 12.1534 3.44886 12.1534C2.7642 12.1534 2.16761 12.0199 1.65909 11.7528C1.15057 11.483 0.755682 11.1151 0.474432 10.6491C0.196023 10.1804 0.0568182 9.64773 0.0568182 9.05114V3.27273H1.11364V8.96591C1.11364 9.39205 1.20739 9.77131 1.39489 10.1037C1.58239 10.4332 1.84943 10.6932 2.19602 10.8835C2.54545 11.071 2.96307 11.1648 3.44886 11.1648C3.93466 11.1648 4.35227 11.071 4.7017 10.8835C5.05114 10.6932 5.31818 10.4332 5.50284 10.1037C5.69034 9.77131 5.78409 9.39205 5.78409 8.96591V3.27273ZM2.98864 2.38636L4.02841 0.409091H5.20455L3.875 2.38636H2.98864ZM8.95135 12V3.27273H10.0082V11.0625H14.065V12H8.95135ZM14.0639 4.21023V3.27273H20.6094V4.21023H17.8651V12H16.8082V4.21023H14.0639ZM23.2972 3.27273V12H22.2404V3.27273H23.2972ZM25.4162 3.27273H26.6776L29.6435 10.517H29.7457L32.7116 3.27273H33.973V12H32.9844V5.36932H32.8991L30.1719 12H29.2173L26.4901 5.36932H26.4048V12H25.4162V3.27273ZM36.4499 12H35.342L38.5465 3.27273H39.6374L42.842 12H41.734L39.1261 4.65341H39.0579L36.4499 12ZM36.859 8.59091H41.3249V9.52841H36.859V8.59091ZM52.3491 5.45455C52.2979 5.02273 52.0906 4.6875 51.7269 4.44886C51.3633 4.21023 50.9173 4.09091 50.3888 4.09091C50.0025 4.09091 49.6644 4.15341 49.3746 4.27841C49.0877 4.40341 48.8633 4.57528 48.7013 4.79403C48.5423 5.01278 48.4627 5.26136 48.4627 5.53977C48.4627 5.77273 48.5181 5.97301 48.6289 6.14062C48.7425 6.3054 48.8874 6.44318 49.0636 6.55398C49.2397 6.66193 49.4244 6.75142 49.6175 6.82244C49.8107 6.89062 49.9883 6.94602 50.1502 6.98864L51.0366 7.22727C51.2638 7.28693 51.5167 7.36932 51.7951 7.47443C52.0763 7.57955 52.3448 7.72301 52.6005 7.90483C52.859 8.08381 53.0721 8.31392 53.2397 8.59517C53.4073 8.87642 53.4911 9.22159 53.4911 9.63068C53.4911 10.1023 53.3675 10.5284 53.1204 10.9091C52.8761 11.2898 52.5181 11.5923 52.0465 11.8168C51.5778 12.0412 51.0082 12.1534 50.3377 12.1534C49.7127 12.1534 49.1715 12.0526 48.7141 11.8509C48.2596 11.6491 47.9016 11.3679 47.6403 11.0071C47.3817 10.6463 47.2354 10.2273 47.2013 9.75H48.2923C48.3207 10.0795 48.4315 10.3523 48.6246 10.5682C48.8207 10.7812 49.0678 10.9403 49.3661 11.0455C49.6673 11.1477 49.9911 11.1989 50.3377 11.1989C50.7411 11.1989 51.1033 11.1335 51.4244 11.0028C51.7454 10.8693 51.9996 10.6847 52.1871 10.4489C52.3746 10.2102 52.4684 9.93182 52.4684 9.61364C52.4684 9.32386 52.3874 9.08807 52.2255 8.90625C52.0636 8.72443 51.8505 8.5767 51.5863 8.46307C51.3221 8.34943 51.0366 8.25 50.7298 8.16477L49.6559 7.85795C48.9741 7.66193 48.4343 7.3821 48.0366 7.01847C47.6388 6.65483 47.44 6.17898 47.44 5.59091C47.44 5.10227 47.5721 4.67614 47.8363 4.3125C48.1033 3.94602 48.4613 3.66193 48.9102 3.46023C49.3619 3.25568 49.8661 3.15341 50.4229 3.15341C50.9854 3.15341 51.4854 3.25426 51.9229 3.45597C52.3604 3.65483 52.707 3.92756 52.9627 4.27415C53.2212 4.62074 53.3576 5.0142 53.3718 5.45455H52.3491ZM55.2287 12V3.27273H60.4957V4.21023H56.2855V7.15909H60.223V8.09659H56.2855V11.0625H60.5639V12H55.2287ZM62.4006 3.27273H63.6619L66.6278 10.517H66.7301L69.696 3.27273H70.9574V12H69.9688V5.36932H69.8835L67.1562 12H66.2017L63.4744 5.36932H63.3892V12H62.4006V3.27273ZM73.4343 12H72.3263L75.5309 3.27273H76.6218L79.8263 12H78.7184L76.1104 4.65341H76.0423L73.4343 12ZM73.8434 8.59091H78.3093V9.52841H73.8434V8.59091ZM88.1062 3.27273V12H87.0835L82.3278 5.14773H82.2425V12H81.1857V3.27273H82.2085L86.9812 10.142H87.0664V3.27273H88.1062ZM90.5788 12H89.4709L92.6754 3.27273H93.7663L96.9709 12H95.8629L93.255 4.65341H93.1868L90.5788 12ZM90.9879 8.59091H95.4538V9.52841H90.9879V8.59091ZM104.398 12H101.705V3.27273H104.518C105.364 3.27273 106.089 3.44744 106.691 3.79688C107.293 4.14347 107.755 4.64205 108.076 5.29261C108.397 5.94034 108.558 6.71591 108.558 7.61932C108.558 8.52841 108.396 9.31108 108.072 9.96733C107.748 10.6207 107.276 11.1236 106.657 11.4759C106.038 11.8253 105.285 12 104.398 12ZM102.762 11.0625H104.33C105.052 11.0625 105.65 10.9233 106.124 10.6449C106.599 10.3665 106.952 9.97017 107.185 9.45597C107.418 8.94176 107.535 8.32955 107.535 7.61932C107.535 6.91477 107.42 6.30824 107.19 5.79972C106.96 5.28835 106.616 4.89631 106.158 4.62358C105.701 4.34801 105.131 4.21023 104.45 4.21023H102.762V11.0625ZM111.387 3.27273V12H110.33V3.27273H111.387ZM118.279 5.45455C118.228 5.02273 118.02 4.6875 117.657 4.44886C117.293 4.21023 116.847 4.09091 116.319 4.09091C115.932 4.09091 115.594 4.15341 115.304 4.27841C115.017 4.40341 114.793 4.57528 114.631 4.79403C114.472 5.01278 114.392 5.26136 114.392 5.53977C114.392 5.77273 114.448 5.97301 114.559 6.14062C114.672 6.3054 114.817 6.44318 114.993 6.55398C115.169 6.66193 115.354 6.75142 115.547 6.82244C115.74 6.89062 115.918 6.94602 116.08 6.98864L116.966 7.22727C117.194 7.28693 117.446 7.36932 117.725 7.47443C118.006 7.57955 118.275 7.72301 118.53 7.90483C118.789 8.08381 119.002 8.31392 119.169 8.59517C119.337 8.87642 119.421 9.22159 119.421 9.63068C119.421 10.1023 119.297 10.5284 119.05 10.9091C118.806 11.2898 118.448 11.5923 117.976 11.8168C117.507 12.0412 116.938 12.1534 116.267 12.1534C115.642 12.1534 115.101 12.0526 114.644 11.8509C114.189 11.6491 113.831 11.3679 113.57 11.0071C113.311 10.6463 113.165 10.2273 113.131 9.75H114.222C114.25 10.0795 114.361 10.3523 114.554 10.5682C114.75 10.7812 114.998 10.9403 115.296 11.0455C115.597 11.1477 115.921 11.1989 116.267 11.1989C116.671 11.1989 117.033 11.1335 117.354 11.0028C117.675 10.8693 117.929 10.6847 118.117 10.4489C118.304 10.2102 118.398 9.93182 118.398 9.61364C118.398 9.32386 118.317 9.08807 118.155 8.90625C117.993 8.72443 117.78 8.5767 117.516 8.46307C117.252 8.34943 116.966 8.25 116.659 8.16477L115.586 7.85795C114.904 7.66193 114.364 7.3821 113.966 7.01847C113.569 6.65483 113.37 6.17898 113.37 5.59091C113.37 5.10227 113.502 4.67614 113.766 4.3125C114.033 3.94602 114.391 3.66193 114.84 3.46023C115.292 3.25568 115.796 3.15341 116.353 3.15341C116.915 3.15341 117.415 3.25426 117.853 3.45597C118.29 3.65483 118.637 3.92756 118.892 4.27415C119.151 4.62074 119.287 5.0142 119.301 5.45455H118.279ZM121.158 12V3.27273H124.107C124.792 3.27273 125.352 3.39631 125.786 3.64347C126.224 3.88778 126.548 4.21875 126.758 4.63636C126.968 5.05398 127.073 5.51989 127.073 6.03409C127.073 6.5483 126.968 7.01562 126.758 7.43608C126.55 7.85653 126.229 8.19176 125.795 8.44176C125.36 8.68892 124.803 8.8125 124.124 8.8125H122.011V7.875H124.09C124.559 7.875 124.935 7.79403 125.219 7.6321C125.504 7.47017 125.71 7.25142 125.837 6.97585C125.968 6.69744 126.033 6.38352 126.033 6.03409C126.033 5.68466 125.968 5.37216 125.837 5.09659C125.71 4.82102 125.502 4.60511 125.215 4.44886C124.928 4.28977 124.548 4.21023 124.073 4.21023H122.215V12H121.158ZM136.139 7.63636C136.139 8.55682 135.973 9.35227 135.641 10.0227C135.308 10.6932 134.852 11.2102 134.273 11.5739C133.693 11.9375 133.031 12.1193 132.287 12.1193C131.543 12.1193 130.881 11.9375 130.301 11.5739C129.722 11.2102 129.266 10.6932 128.933 10.0227C128.601 9.35227 128.435 8.55682 128.435 7.63636C128.435 6.71591 128.601 5.92045 128.933 5.25C129.266 4.57955 129.722 4.0625 130.301 3.69886C130.881 3.33523 131.543 3.15341 132.287 3.15341C133.031 3.15341 133.693 3.33523 134.273 3.69886C134.852 4.0625 135.308 4.57955 135.641 5.25C135.973 5.92045 136.139 6.71591 136.139 7.63636ZM135.116 7.63636C135.116 6.88068 134.99 6.2429 134.737 5.72301C134.487 5.20312 134.148 4.80966 133.719 4.54261C133.293 4.27557 132.815 4.14205 132.287 4.14205C131.759 4.14205 131.28 4.27557 130.851 4.54261C130.425 4.80966 130.085 5.20312 129.832 5.72301C129.582 6.2429 129.457 6.88068 129.457 7.63636C129.457 8.39205 129.582 9.02983 129.832 9.54972C130.085 10.0696 130.425 10.4631 130.851 10.7301C131.28 10.9972 131.759 11.1307 132.287 11.1307C132.815 11.1307 133.293 10.9972 133.719 10.7301C134.148 10.4631 134.487 10.0696 134.737 9.54972C134.99 9.02983 135.116 8.39205 135.116 7.63636ZM144.837 3.27273V12H143.814L139.058 5.14773H138.973V12H137.916V3.27273H138.939L143.712 10.142H143.797V3.27273H144.837ZM148.008 3.27273V12H146.951V3.27273H148.008ZM147.02 2.38636L148.059 0.409091H149.235L147.906 2.38636H147.02ZM150.485 3.27273L153.076 10.6193H153.178L155.769 3.27273H156.877L153.673 12H152.582L149.377 3.27273H150.485ZM158.237 12V3.27273H163.504V4.21023H159.293V7.15909H163.231V8.09659H159.293V11.0625H163.572V12H158.237ZM165.408 12V3.27273H166.465V11.0625H170.522V12H165.408ZM181.227 9.51136C180.883 9.51136 180.569 9.42756 180.285 9.25994C180.001 9.08949 179.773 8.86222 179.603 8.57812C179.435 8.29403 179.352 7.98011 179.352 7.63636C179.352 7.28977 179.435 6.97585 179.603 6.6946C179.773 6.41051 180.001 6.18466 180.285 6.01705C180.569 5.84659 180.883 5.76136 181.227 5.76136C181.573 5.76136 181.887 5.84659 182.168 6.01705C182.452 6.18466 182.678 6.41051 182.846 6.6946C183.016 6.97585 183.102 7.28977 183.102 7.63636C183.102 7.98011 183.016 8.29403 182.846 8.57812C182.678 8.86222 182.452 9.08949 182.168 9.25994C181.887 9.42756 181.573 9.51136 181.227 9.51136Z" fill="white"/>
</svg>
