<svg width="200" height="12" viewBox="0 0 200 12" fill="none" xmlns="http://www.w3.org/2000/svg">
<path d="M9.97852 3.14258C9.86523 3.1543 9.70117 3.18164 9.48633 3.22461C9.27539 3.26367 9.09766 3.33398 8.95312 3.43555C8.80469 3.5332 8.69922 3.70898 8.63672 3.96289C8.57812 4.2168 8.54883 4.59766 8.54883 5.10547V8.19922C8.54883 9.10938 8.24023 9.8418 7.62305 10.3965C7.00586 10.9512 6.18945 11.2285 5.17383 11.2285C3.99023 11.2285 3.07422 10.9609 2.42578 10.4258C1.77734 9.89062 1.45312 9.14453 1.45312 8.1875V3.93359C1.45312 3.79688 1.42578 3.67969 1.37109 3.58203C1.32031 3.48438 1.2207 3.39648 1.07227 3.31836C0.970703 3.26758 0.845703 3.22656 0.697266 3.19531C0.548828 3.16406 0.427734 3.14258 0.333984 3.13086V2.68555H4.69336V3.13086C4.56836 3.13867 4.44141 3.1543 4.3125 3.17773C4.18359 3.19727 4.05273 3.22852 3.91992 3.27148C3.77148 3.31836 3.67188 3.39648 3.62109 3.50586C3.57031 3.61523 3.54492 3.73828 3.54492 3.875V8.07031C3.54492 8.89453 3.72656 9.49414 4.08984 9.86914C4.45312 10.2441 4.98047 10.4316 5.67188 10.4316C6.35156 10.4316 6.88477 10.2246 7.27148 9.81055C7.6582 9.39648 7.85156 8.78711 7.85156 7.98242V5.16406C7.85156 4.66406 7.81641 4.29102 7.74609 4.04492C7.67969 3.79492 7.57617 3.61523 7.43555 3.50586C7.33398 3.41992 7.15625 3.3418 6.90234 3.27148C6.65234 3.20117 6.47656 3.1582 6.375 3.14258V2.68555H9.97852V3.14258ZM7.01953 0.640625C7.01953 0.804688 6.96875 0.939453 6.86719 1.04492C6.76562 1.15039 6.61914 1.24219 6.42773 1.32031C6.20898 1.41016 5.88086 1.53516 5.44336 1.69531C5.00586 1.85547 4.49805 2.05664 3.91992 2.29883L3.72656 2.05859C4.125 1.67969 4.42773 1.38477 4.63477 1.17383C4.8418 0.962891 5.05664 0.738281 5.2793 0.5C5.42773 0.34375 5.57031 0.230469 5.70703 0.160156C5.84375 0.0898438 5.98828 0.0546875 6.14062 0.0546875C6.39453 0.0546875 6.60352 0.109375 6.76758 0.21875C6.93555 0.324219 7.01953 0.464844 7.01953 0.640625ZM18.2344 8.33398L18.0703 11H10.4121V10.543C10.5488 10.5312 10.709 10.5137 10.8926 10.4902C11.0762 10.4629 11.1973 10.4375 11.2559 10.4141C11.3965 10.3594 11.4941 10.2832 11.5488 10.1855C11.6035 10.0879 11.6309 9.96289 11.6309 9.81055V3.94531C11.6309 3.80469 11.6094 3.68945 11.5664 3.59961C11.5234 3.50586 11.4199 3.42188 11.2559 3.34766C11.1348 3.29297 10.9883 3.25 10.8164 3.21875C10.6484 3.18359 10.5137 3.1582 10.4121 3.14258V2.68555H14.9766V3.14258C14.8516 3.1543 14.7031 3.17188 14.5312 3.19531C14.3633 3.21484 14.2168 3.24414 14.0918 3.2832C13.9395 3.33398 13.8379 3.41406 13.7871 3.52344C13.7363 3.62891 13.7109 3.75 13.7109 3.88672V9.35352C13.7109 9.61133 13.7285 9.81445 13.7637 9.96289C13.7988 10.1113 13.8672 10.2207 13.9688 10.291C14.0703 10.3652 14.2109 10.4141 14.3906 10.4375C14.5742 10.457 14.8262 10.4668 15.1465 10.4668C15.459 10.4668 15.7617 10.4492 16.0547 10.4141C16.3516 10.375 16.5645 10.293 16.6934 10.168C16.8926 9.96875 17.0957 9.68945 17.3027 9.33008C17.5137 8.9668 17.6816 8.63477 17.8066 8.33398H18.2344ZM26.3672 5.06445H25.916C25.7949 4.70898 25.5996 4.32812 25.3301 3.92188C25.0645 3.51562 24.8184 3.29688 24.5918 3.26562C24.4668 3.25 24.3125 3.23633 24.1289 3.22461C23.9453 3.21289 23.7871 3.20703 23.6543 3.20703H23.3789V9.72852C23.3789 9.86914 23.4043 9.99414 23.4551 10.1035C23.5059 10.209 23.6055 10.293 23.7539 10.3555C23.8438 10.3906 23.9824 10.4277 24.1699 10.4668C24.3613 10.502 24.5234 10.5273 24.6562 10.543V11H20.0215V10.543C20.1348 10.5312 20.293 10.5156 20.4961 10.4961C20.7031 10.4727 20.8438 10.4453 20.918 10.4141C21.0703 10.3516 21.1719 10.2676 21.2227 10.1621C21.2734 10.0566 21.2988 9.93164 21.2988 9.78711V3.20703H21.0234C20.8906 3.20703 20.7324 3.21289 20.5488 3.22461C20.3652 3.23633 20.2109 3.25 20.0859 3.26562C19.8594 3.29688 19.6113 3.51562 19.3418 3.92188C19.0762 4.32812 18.8828 4.70898 18.7617 5.06445H18.3105V2.68555H26.3672V5.06445ZM31.4297 11H26.8184V10.543C26.9238 10.5352 27.0781 10.5234 27.2812 10.5078C27.4883 10.4922 27.6309 10.4688 27.709 10.4375C27.8535 10.3789 27.9512 10.3027 28.002 10.209C28.0566 10.1113 28.084 9.98828 28.084 9.83984V3.94531C28.084 3.8125 28.0586 3.69531 28.0078 3.59375C27.957 3.49219 27.8574 3.41016 27.709 3.34766C27.6152 3.30859 27.4766 3.26953 27.293 3.23047C27.1094 3.1875 26.9512 3.1582 26.8184 3.14258V2.68555H31.4297V3.14258C31.3125 3.1543 31.166 3.17188 30.9902 3.19531C30.8145 3.21484 30.666 3.24414 30.5449 3.2832C30.3926 3.33398 30.291 3.41406 30.2402 3.52344C30.1895 3.62891 30.1641 3.75 30.1641 3.88672V9.77539C30.1641 9.91602 30.1895 10.0371 30.2402 10.1387C30.2949 10.2363 30.3965 10.3164 30.5449 10.3789C30.627 10.4141 30.7617 10.4492 30.9492 10.4844C31.1406 10.5156 31.3008 10.5352 31.4297 10.543V11ZM43.6348 11H39.1289V10.543C39.2617 10.5312 39.4238 10.5117 39.6152 10.4844C39.8105 10.457 39.9434 10.4277 40.0137 10.3965C40.1582 10.3379 40.2617 10.2578 40.3242 10.1562C40.3867 10.0547 40.418 9.92578 40.418 9.76953V3.55859L37.5586 10.8652H36.8203C36.7852 10.7363 36.6973 10.4805 36.5566 10.0977C36.4199 9.71484 36.3086 9.4082 36.2227 9.17773L34.1191 3.46484V8.52148C34.1191 9.00586 34.1504 9.375 34.2129 9.62891C34.2793 9.87891 34.3848 10.0625 34.5293 10.1797C34.627 10.2617 34.8008 10.3398 35.0508 10.4141C35.3047 10.4883 35.4824 10.5312 35.584 10.543V11H32.0098V10.543C32.1074 10.5312 32.2656 10.5059 32.4844 10.4668C32.707 10.4238 32.8887 10.3516 33.0293 10.25C33.1855 10.1406 33.291 9.95703 33.3457 9.69922C33.4004 9.4375 33.4277 9.06641 33.4277 8.58594V4.4668C33.4277 4.2168 33.3965 4.00977 33.334 3.8457C33.2715 3.67773 33.1777 3.54492 33.0527 3.44727C32.8965 3.32617 32.7363 3.24805 32.5723 3.21289C32.4082 3.17773 32.2422 3.1543 32.0742 3.14258V2.68555H35.9004L37.9512 8.17578L39.6797 3.7168C39.7383 3.55273 39.7949 3.35742 39.8496 3.13086C39.9043 2.9043 39.9336 2.75586 39.9375 2.68555H43.623V3.14258C43.498 3.15039 43.3672 3.16602 43.2305 3.18945C43.0938 3.21289 42.9629 3.24414 42.8379 3.2832C42.6855 3.33398 42.584 3.41406 42.5332 3.52344C42.4863 3.63281 42.4629 3.75391 42.4629 3.88672V9.77539C42.4629 9.91602 42.4863 10.0352 42.5332 10.1328C42.584 10.2266 42.6855 10.3086 42.8379 10.3789C42.916 10.4141 43.043 10.4473 43.2188 10.4785C43.3984 10.5098 43.5371 10.5312 43.6348 10.543V11ZM53.5137 11H48.9844V10.543C49.1953 10.5273 49.4434 10.4902 49.7285 10.4316C50.0137 10.3691 50.1562 10.293 50.1562 10.2031C50.1562 10.1719 50.1523 10.1367 50.1445 10.0977C50.1406 10.0586 50.125 10.0059 50.0977 9.93945L49.3887 8.2168H46.5176C46.4512 8.37695 46.377 8.56445 46.2949 8.7793C46.2168 8.99414 46.1484 9.18555 46.0898 9.35352C46.0156 9.57227 45.9707 9.73047 45.9551 9.82812C45.9434 9.92578 45.9375 9.99414 45.9375 10.0332C45.9375 10.1582 46.0312 10.2656 46.2188 10.3555C46.4102 10.4414 46.7266 10.5039 47.168 10.543V11H43.7578V10.543C43.8867 10.5352 44.0312 10.5156 44.1914 10.4844C44.3555 10.4492 44.4844 10.4023 44.5781 10.3438C44.7383 10.25 44.873 10.1348 44.9824 9.99805C45.0957 9.86133 45.1895 9.69922 45.2637 9.51172C45.7168 8.41406 46.1699 7.31445 46.623 6.21289C47.0801 5.11133 47.584 3.89648 48.1348 2.56836H49.3066C50.0723 4.45117 50.6719 5.93945 51.1055 7.0332C51.5391 8.12695 51.9082 9.0332 52.2129 9.75195C52.2637 9.86914 52.3281 9.97656 52.4062 10.0742C52.4844 10.168 52.5957 10.2578 52.7402 10.3438C52.8496 10.4062 52.9766 10.4531 53.1211 10.4844C53.2656 10.5156 53.3965 10.5352 53.5137 10.543V11ZM49.1484 7.63672L47.9414 4.625L46.752 7.63672H49.1484ZM60.1289 11.2227C59.6211 11.2227 59.1465 11.1602 58.7051 11.0352C58.2676 10.9102 57.8965 10.7617 57.5918 10.5898L57.1875 11H56.6895L56.6133 7.99414H57.1172C57.2305 8.2793 57.375 8.58008 57.5508 8.89648C57.7266 9.21289 57.9297 9.49609 58.1602 9.74609C58.3984 10.0078 58.6641 10.2207 58.957 10.3848C59.2539 10.5488 59.5996 10.6309 59.9941 10.6309C60.5254 10.6309 60.9316 10.502 61.2129 10.2441C61.498 9.98242 61.6406 9.6543 61.6406 9.25977C61.6406 8.93555 61.5195 8.66406 61.2773 8.44531C61.0391 8.22266 60.668 8.03125 60.1641 7.87109C59.8359 7.76562 59.5332 7.66797 59.2559 7.57812C58.9824 7.48828 58.7246 7.39648 58.4824 7.30273C57.9238 7.08008 57.5078 6.76172 57.2344 6.34766C56.9648 5.93359 56.8301 5.4707 56.8301 4.95898C56.8301 4.63477 56.9004 4.32422 57.041 4.02734C57.1816 3.72656 57.3867 3.45703 57.6562 3.21875C57.9141 2.99609 58.2441 2.81445 58.6465 2.67383C59.0488 2.5332 59.4863 2.46289 59.959 2.46289C60.4199 2.46289 60.8516 2.52734 61.2539 2.65625C61.6562 2.78125 61.9727 2.9082 62.2031 3.03711L62.5605 2.68555H63.0703L63.1172 5.52148H62.6133C62.4961 5.2168 62.3574 4.90625 62.1973 4.58984C62.041 4.26953 61.875 4.00391 61.6992 3.79297C61.5078 3.56641 61.2871 3.38672 61.0371 3.25391C60.7871 3.11719 60.4941 3.04883 60.1582 3.04883C59.7363 3.04883 59.3906 3.16797 59.1211 3.40625C58.8555 3.64453 58.7227 3.93945 58.7227 4.29102C58.7227 4.62305 58.8379 4.89453 59.0684 5.10547C59.3027 5.31641 59.666 5.50195 60.1582 5.66211C60.4473 5.75977 60.7422 5.85742 61.043 5.95508C61.3438 6.05273 61.6113 6.14648 61.8457 6.23633C62.4121 6.45508 62.8418 6.75781 63.1348 7.14453C63.4316 7.52734 63.5801 8.00391 63.5801 8.57422C63.5801 8.93359 63.4961 9.28125 63.3281 9.61719C63.1602 9.95312 62.9336 10.2324 62.6484 10.4551C62.3359 10.7012 61.9746 10.8906 61.5645 11.0234C61.1543 11.1562 60.6758 11.2227 60.1289 11.2227ZM71.8066 4.80664H71.3613C71.248 4.49023 71.0527 4.16992 70.7754 3.8457C70.498 3.52148 70.2227 3.33008 69.9492 3.27148C69.832 3.24414 69.668 3.22852 69.457 3.22461C69.25 3.2168 69.0781 3.21289 68.9414 3.21289H67.7344V6.42383H68.5898C68.8047 6.42383 69 6.39844 69.1758 6.34766C69.3516 6.29688 69.5117 6.19922 69.6562 6.05469C69.7461 5.96484 69.8359 5.80664 69.9258 5.58008C70.0195 5.35352 70.0801 5.15625 70.1074 4.98828H70.5527V8.45703H70.1074C70.084 8.29297 70.0234 8.08789 69.9258 7.8418C69.832 7.5918 69.7422 7.41992 69.6562 7.32617C69.5273 7.18555 69.375 7.08984 69.1992 7.03906C69.0234 6.98438 68.8203 6.95703 68.5898 6.95703H67.7344V9.35352C67.7344 9.60352 67.752 9.80273 67.7871 9.95117C67.8262 10.0957 67.8965 10.207 67.998 10.2852C68.0957 10.3594 68.2285 10.4082 68.3965 10.4316C68.5684 10.4551 68.8008 10.4668 69.0938 10.4668C69.2305 10.4668 69.3945 10.4648 69.5859 10.4609C69.7773 10.457 69.9453 10.4453 70.0898 10.4258C70.2539 10.4062 70.4062 10.377 70.5469 10.3379C70.6914 10.2988 70.7988 10.2422 70.8691 10.168C71.0566 9.97656 71.2676 9.68555 71.502 9.29492C71.7363 8.90039 71.8906 8.60547 71.9648 8.41016H72.3926L72.2344 11H64.4355V10.543C64.5449 10.5352 64.6934 10.5195 64.8809 10.4961C65.0684 10.4727 65.2012 10.4453 65.2793 10.4141C65.4277 10.3516 65.5273 10.2734 65.5781 10.1797C65.6289 10.082 65.6543 9.95898 65.6543 9.81055V3.94531C65.6543 3.80469 65.6328 3.68945 65.5898 3.59961C65.5469 3.50586 65.4434 3.42188 65.2793 3.34766C65.1777 3.30078 65.0352 3.25781 64.8516 3.21875C64.668 3.17969 64.5293 3.1543 64.4355 3.14258V2.68555H71.8066V4.80664ZM84.5215 11H80.0156V10.543C80.1484 10.5312 80.3105 10.5117 80.502 10.4844C80.6973 10.457 80.8301 10.4277 80.9004 10.3965C81.0449 10.3379 81.1484 10.2578 81.2109 10.1562C81.2734 10.0547 81.3047 9.92578 81.3047 9.76953V3.55859L78.4453 10.8652H77.707C77.6719 10.7363 77.584 10.4805 77.4434 10.0977C77.3066 9.71484 77.1953 9.4082 77.1094 9.17773L75.0059 3.46484V8.52148C75.0059 9.00586 75.0371 9.375 75.0996 9.62891C75.166 9.87891 75.2715 10.0625 75.416 10.1797C75.5137 10.2617 75.6875 10.3398 75.9375 10.4141C76.1914 10.4883 76.3691 10.5312 76.4707 10.543V11H72.8965V10.543C72.9941 10.5312 73.1523 10.5059 73.3711 10.4668C73.5938 10.4238 73.7754 10.3516 73.916 10.25C74.0723 10.1406 74.1777 9.95703 74.2324 9.69922C74.2871 9.4375 74.3145 9.06641 74.3145 8.58594V4.4668C74.3145 4.2168 74.2832 4.00977 74.2207 3.8457C74.1582 3.67773 74.0645 3.54492 73.9395 3.44727C73.7832 3.32617 73.623 3.24805 73.459 3.21289C73.2949 3.17773 73.1289 3.1543 72.9609 3.14258V2.68555H76.7871L78.8379 8.17578L80.5664 3.7168C80.625 3.55273 80.6816 3.35742 80.7363 3.13086C80.791 2.9043 80.8203 2.75586 80.8242 2.68555H84.5098V3.14258C84.3848 3.15039 84.2539 3.16602 84.1172 3.18945C83.9805 3.21289 83.8496 3.24414 83.7246 3.2832C83.5723 3.33398 83.4707 3.41406 83.4199 3.52344C83.373 3.63281 83.3496 3.75391 83.3496 3.88672V9.77539C83.3496 9.91602 83.373 10.0352 83.4199 10.1328C83.4707 10.2266 83.5723 10.3086 83.7246 10.3789C83.8027 10.4141 83.9297 10.4473 84.1055 10.4785C84.2852 10.5098 84.4238 10.5312 84.5215 10.543V11ZM94.4004 11H89.8711V10.543C90.082 10.5273 90.3301 10.4902 90.6152 10.4316C90.9004 10.3691 91.043 10.293 91.043 10.2031C91.043 10.1719 91.0391 10.1367 91.0312 10.0977C91.0273 10.0586 91.0117 10.0059 90.9844 9.93945L90.2754 8.2168H87.4043C87.3379 8.37695 87.2637 8.56445 87.1816 8.7793C87.1035 8.99414 87.0352 9.18555 86.9766 9.35352C86.9023 9.57227 86.8574 9.73047 86.8418 9.82812C86.8301 9.92578 86.8242 9.99414 86.8242 10.0332C86.8242 10.1582 86.918 10.2656 87.1055 10.3555C87.2969 10.4414 87.6133 10.5039 88.0547 10.543V11H84.6445V10.543C84.7734 10.5352 84.918 10.5156 85.0781 10.4844C85.2422 10.4492 85.3711 10.4023 85.4648 10.3438C85.625 10.25 85.7598 10.1348 85.8691 9.99805C85.9824 9.86133 86.0762 9.69922 86.1504 9.51172C86.6035 8.41406 87.0566 7.31445 87.5098 6.21289C87.9668 5.11133 88.4707 3.89648 89.0215 2.56836H90.1934C90.959 4.45117 91.5586 5.93945 91.9922 7.0332C92.4258 8.12695 92.7949 9.0332 93.0996 9.75195C93.1504 9.86914 93.2148 9.97656 93.293 10.0742C93.3711 10.168 93.4824 10.2578 93.627 10.3438C93.7363 10.4062 93.8633 10.4531 94.0078 10.4844C94.1523 10.5156 94.2832 10.5352 94.4004 10.543V11ZM90.0352 7.63672L88.8281 4.625L87.6387 7.63672H90.0352ZM104.033 3.14258C103.924 3.1543 103.768 3.17578 103.564 3.20703C103.361 3.23828 103.178 3.31445 103.014 3.43555C102.869 3.54102 102.766 3.72266 102.703 3.98047C102.645 4.23438 102.615 4.60938 102.615 5.10547V11.0469H101.572L96.3926 4.61914V8.52148C96.3926 9.00586 96.4238 9.375 96.4863 9.62891C96.5527 9.87891 96.6582 10.0625 96.8027 10.1797C96.9082 10.2656 97.0762 10.3418 97.3066 10.4082C97.5371 10.4746 97.7207 10.5195 97.8574 10.543V11H94.2832V10.543C94.4355 10.5312 94.6094 10.5039 94.8047 10.4609C95.0039 10.4141 95.1699 10.3438 95.3027 10.25C95.4551 10.1367 95.5586 9.9668 95.6133 9.74023C95.6719 9.50977 95.7012 9.125 95.7012 8.58594V4.64844C95.7012 4.45312 95.6699 4.26953 95.6074 4.09766C95.5488 3.92188 95.4551 3.77148 95.3262 3.64648C95.1895 3.51367 95.0312 3.41016 94.8516 3.33594C94.6758 3.25781 94.4746 3.19727 94.248 3.1543V2.68555H97.377L101.924 8.31055V5.16406C101.924 4.66406 101.891 4.29297 101.824 4.05078C101.758 3.80469 101.652 3.62305 101.508 3.50586C101.395 3.41602 101.227 3.33984 101.004 3.27734C100.781 3.21094 100.602 3.16602 100.465 3.14258V2.68555H104.033V3.14258ZM113.584 11H109.055V10.543C109.266 10.5273 109.514 10.4902 109.799 10.4316C110.084 10.3691 110.227 10.293 110.227 10.2031C110.227 10.1719 110.223 10.1367 110.215 10.0977C110.211 10.0586 110.195 10.0059 110.168 9.93945L109.459 8.2168H106.588C106.521 8.37695 106.447 8.56445 106.365 8.7793C106.287 8.99414 106.219 9.18555 106.16 9.35352C106.086 9.57227 106.041 9.73047 106.025 9.82812C106.014 9.92578 106.008 9.99414 106.008 10.0332C106.008 10.1582 106.102 10.2656 106.289 10.3555C106.48 10.4414 106.797 10.5039 107.238 10.543V11H103.828V10.543C103.957 10.5352 104.102 10.5156 104.262 10.4844C104.426 10.4492 104.555 10.4023 104.648 10.3438C104.809 10.25 104.943 10.1348 105.053 9.99805C105.166 9.86133 105.26 9.69922 105.334 9.51172C105.787 8.41406 106.24 7.31445 106.693 6.21289C107.15 5.11133 107.654 3.89648 108.205 2.56836H109.377C110.143 4.45117 110.742 5.93945 111.176 7.0332C111.609 8.12695 111.979 9.0332 112.283 9.75195C112.334 9.86914 112.398 9.97656 112.477 10.0742C112.555 10.168 112.666 10.2578 112.811 10.3438C112.92 10.4062 113.047 10.4531 113.191 10.4844C113.336 10.5156 113.467 10.5352 113.584 10.543V11ZM109.219 7.63672L108.012 4.625L106.822 7.63672H109.219ZM124.201 3.54102C124.709 3.87305 125.119 4.31641 125.432 4.87109C125.744 5.42188 125.9 6.09766 125.9 6.89844C125.9 7.60156 125.76 8.21484 125.479 8.73828C125.201 9.25781 124.832 9.68359 124.371 10.0156C123.902 10.3477 123.369 10.5957 122.771 10.7598C122.178 10.9199 121.555 11 120.902 11H116.713V10.543C116.838 10.5391 116.994 10.5273 117.182 10.5078C117.369 10.4883 117.494 10.4648 117.557 10.4375C117.697 10.3789 117.795 10.3008 117.85 10.2031C117.904 10.1016 117.932 9.98047 117.932 9.83984V3.94531C117.932 3.8125 117.906 3.69336 117.855 3.58789C117.805 3.47852 117.705 3.39062 117.557 3.32422C117.408 3.25781 117.25 3.21289 117.082 3.18945C116.918 3.16602 116.791 3.15039 116.701 3.14258V2.68555H121.125C121.598 2.68555 122.104 2.74609 122.643 2.86719C123.182 2.98828 123.701 3.21289 124.201 3.54102ZM123.006 9.5C123.197 9.1875 123.336 8.81641 123.422 8.38672C123.512 7.95312 123.557 7.45508 123.557 6.89258C123.557 6.3418 123.498 5.83984 123.381 5.38672C123.264 4.93359 123.092 4.54688 122.865 4.22656C122.639 3.90625 122.355 3.6582 122.016 3.48242C121.68 3.30664 121.297 3.21875 120.867 3.21875C120.73 3.21875 120.574 3.22266 120.398 3.23047C120.227 3.23438 120.098 3.23828 120.012 3.24219V9.55273C120.012 9.69336 120.029 9.81836 120.064 9.92773C120.104 10.0332 120.168 10.127 120.258 10.209C120.348 10.291 120.457 10.3555 120.586 10.4023C120.719 10.4453 120.891 10.4668 121.102 10.4668C121.543 10.4668 121.922 10.3848 122.238 10.2207C122.555 10.0566 122.811 9.81641 123.006 9.5ZM131.297 11H126.686V10.543C126.791 10.5352 126.945 10.5234 127.148 10.5078C127.355 10.4922 127.498 10.4688 127.576 10.4375C127.721 10.3789 127.818 10.3027 127.869 10.209C127.924 10.1113 127.951 9.98828 127.951 9.83984V3.94531C127.951 3.8125 127.926 3.69531 127.875 3.59375C127.824 3.49219 127.725 3.41016 127.576 3.34766C127.482 3.30859 127.344 3.26953 127.16 3.23047C126.977 3.1875 126.818 3.1582 126.686 3.14258V2.68555H131.297V3.14258C131.18 3.1543 131.033 3.17188 130.857 3.19531C130.682 3.21484 130.533 3.24414 130.412 3.2832C130.26 3.33398 130.158 3.41406 130.107 3.52344C130.057 3.62891 130.031 3.75 130.031 3.88672V9.77539C130.031 9.91602 130.057 10.0371 130.107 10.1387C130.162 10.2363 130.264 10.3164 130.412 10.3789C130.494 10.4141 130.629 10.4492 130.816 10.4844C131.008 10.5156 131.168 10.5352 131.297 10.543V11ZM135.562 11.2227C135.055 11.2227 134.58 11.1602 134.139 11.0352C133.701 10.9102 133.33 10.7617 133.025 10.5898L132.621 11H132.123L132.047 7.99414H132.551C132.664 8.2793 132.809 8.58008 132.984 8.89648C133.16 9.21289 133.363 9.49609 133.594 9.74609C133.832 10.0078 134.098 10.2207 134.391 10.3848C134.688 10.5488 135.033 10.6309 135.428 10.6309C135.959 10.6309 136.365 10.502 136.646 10.2441C136.932 9.98242 137.074 9.6543 137.074 9.25977C137.074 8.93555 136.953 8.66406 136.711 8.44531C136.473 8.22266 136.102 8.03125 135.598 7.87109C135.27 7.76562 134.967 7.66797 134.689 7.57812C134.416 7.48828 134.158 7.39648 133.916 7.30273C133.357 7.08008 132.941 6.76172 132.668 6.34766C132.398 5.93359 132.264 5.4707 132.264 4.95898C132.264 4.63477 132.334 4.32422 132.475 4.02734C132.615 3.72656 132.82 3.45703 133.09 3.21875C133.348 2.99609 133.678 2.81445 134.08 2.67383C134.482 2.5332 134.92 2.46289 135.393 2.46289C135.854 2.46289 136.285 2.52734 136.688 2.65625C137.09 2.78125 137.406 2.9082 137.637 3.03711L137.994 2.68555H138.504L138.551 5.52148H138.047C137.93 5.2168 137.791 4.90625 137.631 4.58984C137.475 4.26953 137.309 4.00391 137.133 3.79297C136.941 3.56641 136.721 3.38672 136.471 3.25391C136.221 3.11719 135.928 3.04883 135.592 3.04883C135.17 3.04883 134.824 3.16797 134.555 3.40625C134.289 3.64453 134.156 3.93945 134.156 4.29102C134.156 4.62305 134.271 4.89453 134.502 5.10547C134.736 5.31641 135.1 5.50195 135.592 5.66211C135.881 5.75977 136.176 5.85742 136.477 5.95508C136.777 6.05273 137.045 6.14648 137.279 6.23633C137.846 6.45508 138.275 6.75781 138.568 7.14453C138.865 7.52734 139.014 8.00391 139.014 8.57422C139.014 8.93359 138.93 9.28125 138.762 9.61719C138.594 9.95312 138.367 10.2324 138.082 10.4551C137.77 10.7012 137.408 10.8906 136.998 11.0234C136.588 11.1562 136.109 11.2227 135.562 11.2227ZM147.662 4.76562C147.662 5.23438 147.564 5.63867 147.369 5.97852C147.178 6.31445 146.912 6.58789 146.572 6.79883C146.221 7.01758 145.818 7.17578 145.365 7.27344C144.916 7.37109 144.41 7.41992 143.848 7.41992H143.168V9.75781C143.168 9.89844 143.193 10.0215 143.244 10.127C143.299 10.2285 143.4 10.3105 143.549 10.373C143.627 10.4043 143.754 10.4375 143.93 10.4727C144.105 10.5078 144.254 10.5312 144.375 10.543V11H139.869V10.543C139.982 10.5312 140.133 10.5156 140.32 10.4961C140.508 10.4727 140.639 10.4453 140.713 10.4141C140.865 10.3516 140.965 10.2754 141.012 10.1855C141.062 10.0957 141.088 9.9707 141.088 9.81055V3.94531C141.088 3.80859 141.064 3.69141 141.018 3.59375C140.971 3.49219 140.869 3.4082 140.713 3.3418C140.604 3.29492 140.457 3.25391 140.273 3.21875C140.094 3.17969 139.959 3.1543 139.869 3.14258V2.68555H144.457C145.531 2.68555 146.334 2.85742 146.865 3.20117C147.396 3.54102 147.662 4.0625 147.662 4.76562ZM145.377 5.06445C145.377 4.43945 145.25 3.97656 144.996 3.67578C144.746 3.37109 144.299 3.21875 143.654 3.21875H143.168V6.86914H143.414C144.055 6.86914 144.541 6.72266 144.873 6.42969C145.209 6.13281 145.377 5.67773 145.377 5.06445ZM155.965 3.61133C156.375 3.98633 156.699 4.43945 156.938 4.9707C157.18 5.50195 157.301 6.10742 157.301 6.78711C157.301 7.39258 157.199 7.96875 156.996 8.51562C156.793 9.0625 156.5 9.5332 156.117 9.92773C155.715 10.3379 155.242 10.6582 154.699 10.8887C154.156 11.1152 153.51 11.2285 152.76 11.2285C152.154 11.2285 151.582 11.1289 151.043 10.9297C150.504 10.7305 150.029 10.4414 149.619 10.0625C149.213 9.69141 148.891 9.24023 148.652 8.70898C148.414 8.17773 148.295 7.58594 148.295 6.93359C148.295 6.25391 148.41 5.63867 148.641 5.08789C148.875 4.5332 149.195 4.05859 149.602 3.66406C150.004 3.27734 150.48 2.98047 151.031 2.77344C151.586 2.5625 152.176 2.45703 152.801 2.45703C153.422 2.45703 154.004 2.55859 154.547 2.76172C155.094 2.96484 155.566 3.24805 155.965 3.61133ZM154.459 9.55859C154.635 9.20312 154.762 8.80078 154.84 8.35156C154.918 7.90234 154.957 7.39453 154.957 6.82812C154.957 6.34766 154.922 5.88086 154.852 5.42773C154.785 4.9707 154.67 4.56445 154.506 4.20898C154.338 3.85352 154.115 3.56836 153.838 3.35352C153.561 3.13867 153.215 3.03125 152.801 3.03125C152.094 3.03125 151.557 3.36719 151.189 4.03906C150.822 4.70703 150.639 5.65234 150.639 6.875C150.639 7.39453 150.678 7.88477 150.756 8.3457C150.838 8.80664 150.965 9.20898 151.137 9.55273C151.312 9.90039 151.535 10.1719 151.805 10.3672C152.074 10.5586 152.406 10.6543 152.801 10.6543C153.188 10.6543 153.52 10.5566 153.797 10.3613C154.074 10.166 154.295 9.89844 154.459 9.55859ZM167.678 3.14258C167.568 3.1543 167.412 3.17578 167.209 3.20703C167.006 3.23828 166.822 3.31445 166.658 3.43555C166.514 3.54102 166.41 3.72266 166.348 3.98047C166.289 4.23438 166.26 4.60938 166.26 5.10547V11.0469H165.217L160.037 4.61914V8.52148C160.037 9.00586 160.068 9.375 160.131 9.62891C160.197 9.87891 160.303 10.0625 160.447 10.1797C160.553 10.2656 160.721 10.3418 160.951 10.4082C161.182 10.4746 161.365 10.5195 161.502 10.543V11H157.928V10.543C158.08 10.5312 158.254 10.5039 158.449 10.4609C158.648 10.4141 158.814 10.3438 158.947 10.25C159.1 10.1367 159.203 9.9668 159.258 9.74023C159.316 9.50977 159.346 9.125 159.346 8.58594V4.64844C159.346 4.45312 159.314 4.26953 159.252 4.09766C159.193 3.92188 159.1 3.77148 158.971 3.64648C158.834 3.51367 158.676 3.41016 158.496 3.33594C158.32 3.25781 158.119 3.19727 157.893 3.1543V2.68555H161.021L165.568 8.31055V5.16406C165.568 4.66406 165.535 4.29297 165.469 4.05078C165.402 3.80469 165.297 3.62305 165.152 3.50586C165.039 3.41602 164.871 3.33984 164.648 3.27734C164.426 3.21094 164.246 3.16602 164.109 3.14258V2.68555H167.678V3.14258ZM172.781 11H168.17V10.543C168.275 10.5352 168.43 10.5234 168.633 10.5078C168.84 10.4922 168.982 10.4688 169.061 10.4375C169.205 10.3789 169.303 10.3027 169.354 10.209C169.408 10.1113 169.436 9.98828 169.436 9.83984V3.94531C169.436 3.8125 169.41 3.69531 169.359 3.59375C169.309 3.49219 169.209 3.41016 169.061 3.34766C168.967 3.30859 168.828 3.26953 168.645 3.23047C168.461 3.1875 168.303 3.1582 168.17 3.14258V2.68555H172.781V3.14258C172.664 3.1543 172.518 3.17188 172.342 3.19531C172.166 3.21484 172.018 3.24414 171.896 3.2832C171.744 3.33398 171.643 3.41406 171.592 3.52344C171.541 3.62891 171.516 3.75 171.516 3.88672V9.77539C171.516 9.91602 171.541 10.0371 171.592 10.1387C171.646 10.2363 171.748 10.3164 171.896 10.3789C171.979 10.4141 172.113 10.4492 172.301 10.4844C172.492 10.5156 172.652 10.5352 172.781 10.543V11ZM172.066 0.640625C172.066 0.804688 172.016 0.939453 171.914 1.04492C171.812 1.15039 171.666 1.24219 171.475 1.32031C171.256 1.41016 170.928 1.53516 170.49 1.69531C170.053 1.85547 169.545 2.05664 168.967 2.29883L168.773 2.05859C169.172 1.67969 169.475 1.38477 169.682 1.17383C169.889 0.962891 170.104 0.738281 170.326 0.5C170.475 0.34375 170.617 0.230469 170.754 0.160156C170.891 0.0898438 171.035 0.0546875 171.188 0.0546875C171.441 0.0546875 171.65 0.109375 171.814 0.21875C171.982 0.324219 172.066 0.464844 172.066 0.640625ZM182.543 3.1543C182.414 3.16602 182.291 3.18945 182.174 3.22461C182.057 3.25977 181.936 3.31445 181.811 3.38867C181.643 3.48633 181.512 3.5918 181.418 3.70508C181.328 3.81445 181.238 3.9668 181.148 4.16211C181.027 4.43164 180.857 4.82617 180.639 5.3457C180.42 5.86133 180.17 6.44922 179.889 7.10938C179.639 7.70312 179.367 8.35352 179.074 9.06055C178.785 9.76758 178.508 10.4453 178.242 11.0938H177.064C176.518 9.75391 175.961 8.39258 175.395 7.00977C174.828 5.62695 174.43 4.66602 174.199 4.12695C174.109 3.93164 174.021 3.78516 173.936 3.6875C173.854 3.58594 173.721 3.48242 173.537 3.37695C173.404 3.30273 173.287 3.25195 173.186 3.22461C173.084 3.19336 172.949 3.16602 172.781 3.14258V2.68555H177.287V3.13086C176.865 3.18164 176.578 3.23633 176.426 3.29492C176.277 3.34961 176.203 3.41992 176.203 3.50586C176.203 3.54883 176.209 3.5957 176.221 3.64648C176.236 3.69336 176.258 3.75781 176.285 3.83984C176.41 4.18359 176.637 4.74609 176.965 5.52734C177.293 6.30469 177.779 7.49219 178.424 9.08984C178.818 8.11719 179.146 7.29492 179.408 6.62305C179.67 5.95117 179.9 5.35742 180.1 4.8418C180.197 4.5918 180.277 4.35938 180.34 4.14453C180.406 3.92578 180.439 3.76172 180.439 3.65234C180.439 3.52734 180.35 3.42383 180.17 3.3418C179.99 3.25586 179.658 3.19336 179.174 3.1543V2.68555H182.543V3.1543ZM190.084 4.80664H189.639C189.525 4.49023 189.33 4.16992 189.053 3.8457C188.775 3.52148 188.5 3.33008 188.227 3.27148C188.109 3.24414 187.945 3.22852 187.734 3.22461C187.527 3.2168 187.355 3.21289 187.219 3.21289H186.012V6.42383H186.867C187.082 6.42383 187.277 6.39844 187.453 6.34766C187.629 6.29688 187.789 6.19922 187.934 6.05469C188.023 5.96484 188.113 5.80664 188.203 5.58008C188.297 5.35352 188.357 5.15625 188.385 4.98828H188.83V8.45703H188.385C188.361 8.29297 188.301 8.08789 188.203 7.8418C188.109 7.5918 188.02 7.41992 187.934 7.32617C187.805 7.18555 187.652 7.08984 187.477 7.03906C187.301 6.98438 187.098 6.95703 186.867 6.95703H186.012V9.35352C186.012 9.60352 186.029 9.80273 186.064 9.95117C186.104 10.0957 186.174 10.207 186.275 10.2852C186.373 10.3594 186.506 10.4082 186.674 10.4316C186.846 10.4551 187.078 10.4668 187.371 10.4668C187.508 10.4668 187.672 10.4648 187.863 10.4609C188.055 10.457 188.223 10.4453 188.367 10.4258C188.531 10.4062 188.684 10.377 188.824 10.3379C188.969 10.2988 189.076 10.2422 189.146 10.168C189.334 9.97656 189.545 9.68555 189.779 9.29492C190.014 8.90039 190.168 8.60547 190.242 8.41016H190.67L190.512 11H182.713V10.543C182.822 10.5352 182.971 10.5195 183.158 10.4961C183.346 10.4727 183.479 10.4453 183.557 10.4141C183.705 10.3516 183.805 10.2734 183.855 10.1797C183.906 10.082 183.932 9.95898 183.932 9.81055V3.94531C183.932 3.80469 183.91 3.68945 183.867 3.59961C183.824 3.50586 183.721 3.42188 183.557 3.34766C183.455 3.30078 183.312 3.25781 183.129 3.21875C182.945 3.17969 182.807 3.1543 182.713 3.14258V2.68555H190.084V4.80664ZM199.195 8.33398L199.031 11H191.373V10.543C191.51 10.5312 191.67 10.5137 191.854 10.4902C192.037 10.4629 192.158 10.4375 192.217 10.4141C192.357 10.3594 192.455 10.2832 192.51 10.1855C192.564 10.0879 192.592 9.96289 192.592 9.81055V3.94531C192.592 3.80469 192.57 3.68945 192.527 3.59961C192.484 3.50586 192.381 3.42188 192.217 3.34766C192.096 3.29297 191.949 3.25 191.777 3.21875C191.609 3.18359 191.475 3.1582 191.373 3.14258V2.68555H195.938V3.14258C195.812 3.1543 195.664 3.17188 195.492 3.19531C195.324 3.21484 195.178 3.24414 195.053 3.2832C194.9 3.33398 194.799 3.41406 194.748 3.52344C194.697 3.62891 194.672 3.75 194.672 3.88672V9.35352C194.672 9.61133 194.689 9.81445 194.725 9.96289C194.76 10.1113 194.828 10.2207 194.93 10.291C195.031 10.3652 195.172 10.4141 195.352 10.4375C195.535 10.457 195.787 10.4668 196.107 10.4668C196.42 10.4668 196.723 10.4492 197.016 10.4141C197.312 10.375 197.525 10.293 197.654 10.168C197.854 9.96875 198.057 9.68945 198.264 9.33008C198.475 8.9668 198.643 8.63477 198.768 8.33398H199.195Z" fill="white"/>
</svg>
